PathFileType	4	(X/Y/Z)	..\data\2015007\dynamic\2015007_C4_04.trc
DataRate	CameraRate	NumFrames	NumMarkers	Units	OrigDataRate	OrigDataStartFrame	OrigNumFrames
100.000000	100.000000	4	52	mm	100.000000	0	162
Frame#	Time	L_IAS			L_IPS			R_IPS			R_IAS			L_FTC			L_FLE			L_FME			L_FAX			L_TTC			L_FAL			L_TAM			L_FCC			L_FM1			L_FM2			L_FM5			R_FTC			R_FLE			R_FME			R_FAX			R_TTC			R_FAL			R_TAM			R_FCC			R_FM1			R_FM2			R_FM5			CV7			TV10			SXS			SJN			L_SIA			L_SRS			L_SAA			L_SAE			L_HLE			L_HME			L_UOA			L_RSP			L_UHE			L_HM2			L_HM5			R_SIA			R_SRS			R_SAA			R_SAE			R_HLE			R_HME			R_UOA			R_RSP			R_UHE			R_HM2			R_HM5			
		X1	Y1	Z1	X2	Y2	Z2	X3	Y3	Z3	X4	Y4	Z4	X5	Y5	Z5	X6	Y6	Z6	X7	Y7	Z7	X8	Y8	Z8	X9	Y9	Z9	X10	Y10	Z10	X11	Y11	Z11	X12	Y12	Z12	X13	Y13	Z13	X14	Y14	Z14	X15	Y15	Z15	X16	Y16	Z16	X17	Y17	Z17	X18	Y18	Z18	X19	Y19	Z19	X20	Y20	Z20	X21	Y21	Z21	X22	Y22	Z22	X23	Y23	Z23	X24	Y24	Z24	X25	Y25	Z25	X26	Y26	Z26	X27	Y27	Z27	X28	Y28	Z28	X29	Y29	Z29	X30	Y30	Z30	X31	Y31	Z31	X32	Y32	Z32	X33	Y33	Z33	X34	Y34	Z34	X35	Y35	Z35	X36	Y36	Z36	X37	Y37	Z37	X38	Y38	Z38	X39	Y39	Z39	X40	Y40	Z40	X41	Y41	Z41	X42	Y42	Z42	X43	Y43	Z43	X44	Y44	Z44	X45	Y45	Z45	X46	Y46	Z46	X47	Y47	Z47	X48	Y48	Z48	X49	Y49	Z49	X50	Y50	Z50	X51	Y51	Z51	X52	Y52	Z52	

1	0	-92.28806304931642	892.8635864257815	-386.5736694335939	-305.0119018554688	906.3406982421877	-295.9188232421876	-294.1684265136719	905.7463378906252	-194.1198272705079	-73.5430374145508	896.4870605468752	-135.4842224121094	-194.3315887451172	796.0432128906252	-438.2500305175782	-248.5639953613282	428.109832763672	-370.4045104980469	-256.5774841308594	418.4057006835939	-247.8201751708985	-278.3088073730469	375.6818847656251	-376.5815124511719	-233.2671661376954	354.6804809570313	-321.9581298828126	-391.1579589843751	72.30774688720705	-327.9803161621094	-374.4053344726563	74.97991943359376	-246.1085357666016	-445.6348571777345	31.50332832336426	-279.5879821777344	-269.3868408203126	17.8736572265625	-270.1798400878907	-266.3744506835938	28.8784294128418	-321.4683227539063	-323.7406005859376	15.13830280303955	-360.0211486816407	-156.3219604492188	793.729919433594	-67.17299652099611	-12.67489814758301	446.1763000488282	-109.8587188720703	-18.50149917602539	419.648406982422	-238.0732421875001	-6.839958667755129	394.2830505371095	-101.6355819702149	47.30282592773438	401.286590576172	-147.2821502685547	96.6856384277344	77.98713684082033	-115.9691543579102	126.3008804321289	102.6662673950196	-191.4609527587891	84.37937164306642	17.29035758972168	-174.0534210205078	246.0296325683594	84.14154052734376	-167.0805206298828	234.6499633789063	86.32851409912111	-126.8936767578125	195.1232147216797	46.62097167968751	-81.95002746582033	-187.398910522461	1397.5400390625	-237.1568298339844	-293.1316833496094	1163.272338867188	-263.1952209472657	-28.72172164916993	1059.060302734375	-261.5604553222657	-75.57115936279298	1311.881469726563	-247.2151794433594	-289.6170349121094	1214.12158203125	-345.7522277832032	-245.3965759277344	1341.114135742188	-347.8068542480469	-198.8359985351563	1347.469116210938	-408.9966430664064	-148.4767456054688	1353.6318359375	-419.3753967285157	-137.946517944336	1046.677490234375	-513.3977661132814	-167.2935943603516	1027.29833984375	-442.9092712402345	-160.7371673583985	1012.306884765625	-490.7434082031251	25.33617401123048	867.9916992187502	-483.5491638183595	-33.37029266357423	841.339050292969	-530.1771850585939	69.84937286376955	818.350769042969	-491.9803466796876	-11.17833614349365	784.5285644531252	-533.1424560546876	-296.0763549804688	1200.767333984375	-180.2822265625	-249.5165557861329	1322.315307617188	-166.9488372802735	-198.2854156494141	1319.128662109375	-93.58880615234376	-151.3498992919922	1321.53857421875	-74.3016815185547	-203.0305938720704	1009.370483398438	-11.09916687011719	-232.4949340820313	998.8506469726565	-77.06735992431642	-228.6912841796876	980.187927246094	-31.10455131530762	-130.1268463134766	787.039245605469	-10.23104476928711	-180.5447845458985	791.717224121094	26.68934059143067	-108.3439483642578	710.1232910156251	2.529002666473389	-181.9879302978516	724.3287353515626	40.43971252441407	
2	0.01	-80.83924865722658	891.6885375976565	-385.636444091797	-293.3901672363282	905.1220703125002	-294.4612121582032	-282.4804077148438	904.304138183594	-192.7992248535157	-61.95909118652345	894.932312011719	-134.1939697265625	-183.4246063232422	795.1795043945315	-437.0999755859376	-240.2674713134766	427.4828491210939	-369.7971801757813	-248.1892700195313	417.9011840820314	-247.2231597900391	-270.8793334960938	375.4766845703126	-375.9338684082032	-226.301498413086	353.5505981445313	-321.2807006835938	-390.014617919922	74.25514984130861	-328.4332580566407	-373.4695129394532	76.7612991333008	-246.5404052734376	-445.5472412109376	34.44195175170899	-280.1956787109376	-269.1111450195313	18.05345535278321	-270.3775329589844	-266.1705017089844	28.90379714965821	-321.6637573242188	-323.5610351562501	15.16721153259278	-360.0857238769532	-144.6849670410157	792.0546875000002	-66.17755126953126	-0.3268935382366181	445.1408996582032	-109.6589584350586	-5.596031665802003	419.0564575195314	-237.9910430908204	5.735284805297852	393.2351989746095	-101.6670684814453	59.68936920166017	400.3894653320314	-147.4579315185547	108.6856842041016	77.33139038085939	-116.7115325927735	137.9287567138672	101.9010772705078	-192.4020233154297	95.69754028320314	16.94125938415528	-174.572006225586	257.7787780761719	82.93155670166017	-168.8584289550782	246.644027709961	85.1360549926758	-128.5730438232422	207.2291717529297	45.62897491455079	-83.47635650634767	-176.1350860595703	1396.140625	-235.9969329833985	-281.6810302734376	1161.734130859375	-262.0057067871094	-17.7275619506836	1057.679443359375	-260.0191955566407	-64.24278259277345	1310.552368164063	-245.8230895996094	-278.0012207031251	1212.501708984375	-344.4948120117188	-233.9228820800782	1339.560302734375	-346.6708984375001	-187.2995147705078	1345.790649414063	-407.8225402832032	-136.93603515625	1351.97119140625	-418.1687011718751	-125.0286941528321	1045.185791015625	-512.2675781250001	-154.5370483398438	1025.531860351563	-441.9233398437501	-147.5718231201172	1010.517333984375	-489.6767578125001	40.14338684082032	868.4219970703127	-481.3121337890626	-18.02299690246582	840.9088134765627	-528.1036987304689	85.23585510253908	819.242126464844	-489.2787475585939	4.896274089813233	784.3739013671877	-530.8014526367189	-284.8298645019532	1199.361083984375	-179.1228485107422	-238.1995544433594	1320.857543945313	-165.777587890625	-187.1837158203125	1317.777709960938	-92.37683868408205	-140.2916564941407	1320.200805664063	-73.00167846679689	-192.6079711914063	1008.195495605469	-9.900967597961428	-221.9798126220704	997.5330200195315	-75.86019134521486	-218.3132019042969	979.1902465820315	-29.98593902587891	-121.6406860351563	785.128112792969	-8.524742126464846	-171.8269805908203	790.440612792969	28.44410705566407	-100.4374923706055	708.2868041992189	4.599362373352052	-174.0070190429688	723.1618041992189	42.31926727294923	
3	0.02	-69.19343566894533	890.565124511719	-384.6168212890626	-281.5709838867188	904.0889282226565	-292.9431152343751	-270.5762634277344	903.136657714844	-191.3548583984375	-50.16649246215822	893.5855102539065	-132.8694915771485	-172.2055206298828	794.3113403320315	-435.8441772460939	-231.2741394042969	426.8306579589845	-369.1570129394532	-239.227523803711	417.3587646484376	-246.6246337890626	-262.8092651367188	375.2836303710938	-375.2708435058594	-218.7300567626954	352.3735351562501	-320.5810241699219	-388.6640930175782	76.59387969970705	-329.0736389160157	-372.3453369140626	78.8631057739258	-247.1491699218751	-445.3288574218751	37.91007614135743	-280.9745178222657	-268.9080505371094	18.19088745117188	-270.5545959472657	-266.0382385253907	28.85229682922364	-321.8394470214844	-323.3875732421876	15.18167495727539	-360.1829833984376	-132.7911071777344	790.6741943359377	-65.06378173828126	12.28021907806397	444.3336486816407	-109.4977493286133	7.717805385589601	418.8299865722657	-237.9387664794922	18.33081817626953	392.3108825683595	-101.7749404907227	72.06075286865236	399.3257751464845	-147.654541015625	118.3448257446289	76.25373840332033	-117.5725555419922	147.3815307617188	100.4188995361328	-193.5252075195313	104.1518478393555	16.40290260314942	-175.1456909179688	267.0801391601563	80.1580276489258	-170.790756225586	256.2037353515626	82.53556060791017	-130.4207458496094	216.6271362304688	43.59506607055665	-85.15716552734376	-164.7793426513672	1394.92236328125	-234.7360076904297	-270.0706481933594	1160.343383789063	-260.7232360839844	-6.504133224487306	1056.52978515625	-258.3949279785157	-52.80493545532228	1309.43603515625	-244.3267517089844	-266.2559814453126	1211.047973632813	-343.1417541503907	-222.3434753417969	1338.178100585938	-345.4260559082032	-175.6700744628907	1344.295532226563	-406.5382690429689	-125.309684753418	1350.507934570313	-416.8687744140626	-112.3590316772461	1043.8466796875	-510.9922180175782	-141.9841461181641	1023.967712402344	-440.7644653320314	-134.6799468994141	1008.919982910156	-488.4430541992189	54.42892456054689	868.7940063476565	-479.0194702148439	-3.235301971435548	840.5183105468752	-525.9475097656251	100.0524978637696	820.0471801757815	-486.5816345214845	20.32895469665528	784.227233886719	-528.3776855468751	-273.4494934082032	1198.098022460938	-177.8794097900391	-226.7846221923829	1319.553100585938	-164.514404296875	-175.9916687011719	1316.591674804688	-91.06985473632814	-129.1527709960938	1319.043701171875	-71.60146331787111	-181.9595184326172	1007.143981933594	-8.665664672851564	-211.2701721191407	996.3687133789065	-74.61411285400392	-207.7346343994141	978.332214355469	-28.83438873291016	-112.8449630737305	783.4827880859377	-6.788042545318605	-162.8342437744141	789.349304199219	30.18632888793946	-92.21292114257814	706.6850585937501	6.669929504394533	-165.7203979492188	722.1684570312501	44.17793273925782	
4	0.03	-57.32686996459962	889.507507324219	-383.4924926757813	-269.5477600097657	903.238464355469	-291.4002990722657	-258.4655151367188	902.2644042968752	-189.818359375	-38.1678581237793	892.507507324219	-131.5064697265625	-160.652099609375	793.4353637695315	-434.4843750000001	-221.5220489501954	426.1548461914064	-368.5008544921876	-229.6362304687501	416.7649841308595	-246.0300292968751	-254.0472564697266	375.1141662597657	-374.6078796386719	-210.4821166992188	351.1463012695313	-319.8974609375001	-387.0322570800782	79.3715286254883	-329.8750610351563	-370.9240722656251	81.31066131591798	-247.9186401367188	-444.8634643554689	41.99297332763673	-281.8607482910157	-268.8223571777344	18.25401306152344	-270.6825256347657	-266.0170593261719	28.69859886169434	-321.9657287597657	-323.2392578125001	15.21559429168702	-360.2905578613282	-120.6563415527344	789.6358642578127	-63.83810424804689	25.07756233215333	443.7729797363282	-109.3462905883789	21.27452087402344	418.9434814453126	-237.8700866699219	30.92856025695801	391.5369567871095	-101.91064453125	84.38565063476564	398.1578674316407	-147.8603057861328	126.0141296386719	74.84067535400392	-118.4612808227539	154.953109741211	98.33950805664065	-194.7468872070313	110.1271286010742	15.74830436706543	-175.6866607666016	274.2744445800782	76.02157592773439	-172.8252258300782	263.6842041015626	78.70557403564455	-132.3775177001953	223.7005767822266	40.67273330688477	-86.91431427001955	-153.3270416259766	1393.9111328125	-233.3766174316407	-258.2941284179688	1159.1318359375	-259.3518981933594	5.000061035156251	1055.637084960938	-256.6855773925782	-41.25555038452149	1308.558349609375	-242.7309875488282	-254.3833770751954	1209.795288085938	-341.7077636718751	-210.6539459228516	1336.998046875	-344.0809020996094	-163.9373779296875	1343.01953125	-405.1507263183595	-113.5865020751953	1349.277099609375	-415.476776123047	-99.937614440918	1042.690185546875	-509.573944091797	-129.6399841308594	1022.641357421875	-439.4330139160157	-122.0680770874024	1007.547058105469	-487.0483703613282	68.16783905029298	869.097595214844	-476.6637268066407	10.96738910675049	840.1716308593752	-523.7136840820314	114.2801895141602	820.760437011719	-483.9044494628907	35.08920288085938	784.0892333984377	-525.8851928710939	-261.9248046875001	1197.001831054688	-176.5588989257813	-215.2725372314454	1318.4306640625	-163.1657257080078	-164.7007598876953	1315.594360351563	-89.67279052734376	-117.9248809814453	1318.091918945313	-70.10756683349611	-171.1017150878907	1006.247863769531	-7.397210121154787	-200.3640441894532	995.3900146484377	-73.34095001220705	-196.9626617431641	977.6384277343752	-27.65481567382813	-103.7240753173828	782.1260986328127	-5.024717330932618	-153.5650787353516	788.466003417969	31.90784645080567	-83.65574645996095	705.3392333984376	8.729831695556642	-157.1136016845703	721.3686523437501	46.00453567504884	
